<svg width="44" height="44" viewBox="0 0 44 44" fill="none" xmlns="http://www.w3.org/2000/svg">
<path d="M37.9073 19.7169C37.98 20.2318 38.41 20.6309 38.9301 20.6307L42.9373 20.6291C43.5135 20.6289 43.9725 20.1425 43.9098 19.5698C43.4427 15.3018 41.7602 11.4026 39.2147 8.22454C38.8542 7.77446 38.1853 7.755 37.7775 8.16276L34.943 10.9973C34.5755 11.3648 34.5536 11.9506 34.8659 12.3661C36.4884 14.5251 37.5291 17.0403 37.9073 19.7169Z" fill="#FAFAFA"/>
<path d="M5.05562 20.6307C5.57566 20.6309 6.00567 20.2318 6.07843 19.7169C6.45707 17.0371 7.4998 14.5191 9.12568 12.3583C9.4383 11.9429 9.41661 11.3567 9.04894 10.989L6.22265 8.16275C5.8149 7.755 5.14593 7.77445 4.78543 8.22452C2.23993 11.4025 0.557372 15.3018 0.0902981 19.5698C0.0276168 20.1425 0.486542 20.6289 1.06272 20.6291L5.05562 20.6307Z" fill="#FAFAFA"/>
<path d="M21.9927 8.67114C18.4284 8.67114 15.0795 10.057 12.5631 12.5735C7.39421 17.5318 7.39447 26.4746 12.5631 31.4329C17.5044 36.5838 26.4104 36.6043 31.3754 31.4787C31.3917 31.4606 31.407 31.4419 31.4244 31.4245C31.4411 31.4078 31.4591 31.3932 31.4765 31.3775C36.5946 26.4109 36.57 17.5117 31.4224 12.5735C28.9058 10.0571 25.557 8.67114 21.9927 8.67114ZM23.1829 19.0984H27.845C29.665 19.1709 29.6637 21.7701 27.845 21.842H23.1704C22.8035 23.955 21.394 25.7151 19.4922 26.5691L22.9063 30.3061C23.4173 30.8655 23.3781 31.7331 22.8188 32.2441C22.2609 32.754 21.3929 32.7171 20.8807 32.1566L15.8759 26.6785C15.5092 26.2773 15.4142 25.6972 15.6335 25.1998C15.8528 24.7025 16.3451 24.3815 16.8886 24.3815C18.511 24.3815 19.888 23.3125 20.3532 21.842H16.8886C15.0686 21.7695 15.07 19.1702 16.8886 19.0984H20.3751C19.9332 17.5899 18.538 16.4848 16.8886 16.4848C15.0692 16.4127 15.0694 13.8132 16.8886 13.7412H27.8449C29.6649 13.8138 29.6636 16.413 27.8449 16.4848H22.1247C22.6582 17.2512 23.0281 18.139 23.1829 19.0984Z" fill="#014E92"/>
<path d="M38.9296 23.374C38.4098 23.3742 37.9803 23.7732 37.9076 24.2879C37.5298 26.9637 36.4899 29.4782 34.8685 31.6369C34.5564 32.0524 34.5783 32.6381 34.9457 33.0055L37.7775 35.8373C38.1853 36.245 38.8542 36.2256 39.2147 35.7755C41.7599 32.5979 43.4423 28.6992 43.9096 24.4319C43.9724 23.8588 43.513 23.3723 42.9365 23.3725L38.9296 23.374Z" fill="#FAFAFA"/>
<path d="M6.07809 24.2879C6.00543 23.7733 5.57586 23.3742 5.05609 23.374L1.06358 23.3725C0.48708 23.3723 0.027666 23.8588 0.0904198 24.4319C0.558741 28.7086 2.24757 32.615 4.80217 35.7964C5.16582 36.2493 5.84083 36.2643 6.24647 35.8486L9.04057 32.9852C9.39976 32.6171 9.41828 32.0384 9.10971 31.627C7.49259 29.4705 6.45526 26.9596 6.07809 24.2879Z" fill="#FAFAFA"/>
<path d="M20.623 38.9395C20.6225 38.4199 20.2236 37.9906 19.709 37.918C17.0243 37.5392 14.5018 36.4939 12.3382 34.8633C11.9187 34.5471 11.3254 34.5723 10.9586 34.9483L8.17425 37.8017C7.77443 38.2115 7.79829 38.8744 8.24556 39.2317C11.4191 41.7672 15.3096 43.4431 19.567 43.9095C20.1403 43.9723 20.6269 43.5126 20.6264 42.9359L20.623 38.9395Z" fill="#FAFAFA"/>
<path d="M10.9902 9.05029C11.3577 9.41772 11.9433 9.43964 12.3588 9.12756C14.5178 7.50588 17.0327 6.46595 19.7089 6.08832C20.2234 6.01572 20.6224 5.58642 20.6228 5.06681L20.6263 1.06411C20.6268 0.487417 20.1401 0.027704 19.5668 0.0905105C15.2999 0.55799 11.4016 2.24037 8.22427 4.78535C7.7742 5.14584 7.75475 5.81481 8.1625 6.22256L10.9902 9.05029Z" fill="#FAFAFA"/>
<path d="M33.0071 34.9471C32.6395 34.5794 32.0533 34.5577 31.6378 34.8703C29.4774 36.496 26.9597 37.5387 24.2803 37.9174C23.7652 37.9902 23.3661 38.4205 23.3665 38.9407L23.37 42.9379C23.3705 43.5138 23.8568 43.9725 24.4293 43.9098C28.6977 43.443 32.5974 41.7603 35.7757 39.2146C36.2258 38.8541 36.2452 38.1851 35.8375 37.7774L33.0071 34.9471Z" fill="#FAFAFA"/>
<path d="M23.3665 5.06561C23.3661 5.58583 23.7652 6.01611 24.2803 6.08891C26.9583 6.46744 29.4747 7.50922 31.6343 9.1334C32.0498 9.44586 32.6358 9.4241 33.0034 9.05651L35.8374 6.22256C36.2451 5.81481 36.2257 5.14584 35.7756 4.78535C32.5974 2.23965 28.6977 0.557058 24.4293 0.0901997C23.8568 0.0275756 23.3705 0.4862 23.37 1.06218L23.3665 5.06561Z" fill="#FAFAFA"/>
</svg>
